<?xml version="1.0" encoding="UTF-8" standalone="no"?>
<!-- Created with Inkscape (http://www.inkscape.org/) -->

<svg
   xmlns:dc="http://purl.org/dc/elements/1.1/"
   xmlns:cc="http://creativecommons.org/ns#"
   xmlns:rdf="http://www.w3.org/1999/02/22-rdf-syntax-ns#"
   xmlns:svg="http://www.w3.org/2000/svg"
   xmlns="http://www.w3.org/2000/svg"
   xmlns:sodipodi="http://sodipodi.sourceforge.net/DTD/sodipodi-0.dtd"
   xmlns:inkscape="http://www.inkscape.org/namespaces/inkscape"
   version="1.1"
   id="svg2"
   xml:space="preserve"
   width="169.04881"
   height="112.69936"
   viewBox="0 0 169.04881 112.69936"
   sodipodi:docname="bg.svg"
   inkscape:version="0.92.4 (f8dce91, 2019-08-02)"><metadata
     id="metadata8"><rdf:RDF><cc:Work
         rdf:about=""><dc:format>image/svg+xml</dc:format><dc:type
           rdf:resource="http://purl.org/dc/dcmitype/StillImage" /><dc:title></dc:title></cc:Work></rdf:RDF></metadata><defs
     id="defs6"><clipPath
       clipPathUnits="userSpaceOnUse"
       id="clipPath20"><path
         d="M 0,500 H 750 V 0 H 0 Z"
         id="path18"
         inkscape:connector-curvature="0" /></clipPath><clipPath
       clipPathUnits="userSpaceOnUse"
       id="clipPath172"><path
         d="m 471.18,463.796 h 25.386 V 437.001 H 471.18 Z"
         id="path170"
         inkscape:connector-curvature="0" /></clipPath><clipPath
       clipPathUnits="userSpaceOnUse"
       id="clipPath192"><path
         d="M 68.6123,228.438 H 93.0591 V 205.266 H 68.6123 Z"
         id="path190"
         inkscape:connector-curvature="0" /></clipPath><clipPath
       clipPathUnits="userSpaceOnUse"
       id="clipPath220"><path
         d="m 320.953,243.137 h 34.564 v -35.416 h -34.564 z"
         id="path218"
         inkscape:connector-curvature="0" /></clipPath><clipPath
       clipPathUnits="userSpaceOnUse"
       id="clipPath1332"><path
         d="M 0,500 H 750 V 0 H 0 Z"
         id="path1330"
         inkscape:connector-curvature="0" /></clipPath><clipPath
       clipPathUnits="userSpaceOnUse"
       id="clipPath1340"><path
         d="m -28.457,0 h -500 v 500.001 h 500 z"
         id="path1338"
         inkscape:connector-curvature="0" /></clipPath><clipPath
       clipPathUnits="userSpaceOnUse"
       id="clipPath1364"><path
         d="M 0,500 H 750 V 0 H 0 Z"
         id="path1362"
         inkscape:connector-curvature="0" /></clipPath></defs><sodipodi:namedview
     pagecolor="#ffffff"
     bordercolor="#666666"
     borderopacity="1"
     objecttolerance="10"
     gridtolerance="10"
     guidetolerance="10"
     inkscape:pageopacity="0"
     inkscape:pageshadow="2"
     inkscape:window-width="1920"
     inkscape:window-height="1016"
     id="namedview4"
     showgrid="false"
     inkscape:zoom="4.0050527"
     inkscape:cx="71.641753"
     inkscape:cy="50.119513"
     inkscape:window-x="0"
     inkscape:window-y="27"
     inkscape:window-maximized="1"
     inkscape:current-layer="g10"
     fit-margin-top="0"
     fit-margin-left="0"
     fit-margin-right="0"
     fit-margin-bottom="0" /><g
     id="g10"
     inkscape:groupmode="layer"
     inkscape:label="2663925"
     transform="matrix(1.3333333,0,0,-1.3333333,-0.00106667,666.66706)"><g
       id="g4928"
       transform="translate(1.8997818e-6,2.9916151e-6)"><path
         inkscape:transform-center-y="10.986123"
         inkscape:transform-center-x="-554.29983"
         inkscape:connector-curvature="0"
         id="path12"
         style="fill:#191920;fill-opacity:0.94117647;fill-rule:nonzero;stroke:none;stroke-width:0.16904895"
         d="M 8.3380979e-4,415.47578 H 126.78738 v 84.52447 H 8.3380979e-4 Z" /><g
         transform="matrix(0.16904895,0,0,0.16904895,5.0837638,464.48752)"
         id="g22"><path
           inkscape:connector-curvature="0"
           id="path24"
           style="fill:#000000;fill-opacity:0.94117647;fill-rule:nonzero;stroke:none"
           d="m 0,0 c 24.029,-2.887 51.072,-10.781 73.885,1.301 8.257,4.373 14.488,11.171 18.22,19.73 3.671,8.42 5.262,17.569 6.791,26.571 1.62,9.533 3.119,19.173 6.237,28.36 3.555,10.475 9.208,20.475 16.831,28.537 14.72,15.567 35.159,21.519 54.882,28.063 11.063,3.67 22.72,7.425 32.675,13.612 10.028,6.234 18.444,14.888 24.924,24.728 7.726,11.732 13.204,25.217 15.645,39.172 H -30.068 V -0.155 C -20.217,1.69 -9.962,1.197 0,0" /></g><g
         transform="matrix(0.16904895,0,0,0.16904895,21.657661,417.03948)"
         id="g26"><path
           inkscape:connector-curvature="0"
           id="path28"
           style="fill:#000000;fill-opacity:0.94117647;fill-rule:nonzero;stroke:none"
           d="m 0,0 c -9.076,14.723 -22.085,26.567 -31.369,41.175 -5.837,9.184 -9.756,19.614 -9.836,30.598 -0.073,10.02 2.65,19.67 6.499,28.847 8.352,19.919 21.608,37.609 28.012,58.382 5.71,18.527 5.029,41.477 -11.272,54.595 -14.06,11.315 -34.076,11.571 -50.314,5.159 -10.94,-4.321 -20.074,-11.616 -28.365,-19.844 -9.532,-9.461 -17.721,-20.131 -25.011,-31.391 -2.214,-3.419 -4.353,-6.886 -6.454,-10.375 V -9.25 H 4.578 C 3.358,-6.045 1.819,-2.951 0,0" /></g><g
         transform="matrix(0.16904895,0,0,0.16904895,103.29255,500.00025)"
         id="g30"><path
           inkscape:connector-curvature="0"
           id="path32"
           style="fill:#000000;fill-opacity:0.94117647;fill-rule:nonzero;stroke:none"
           d="m 0,0 h -155.004 c -1.064,-3.854 -1.889,-7.774 -2.557,-11.637 -2.832,-16.374 -3.384,-33.079 -6.652,-49.384 -2.84,-14.166 -8.064,-28.877 -20.191,-37.722 -6.944,-5.065 -15.069,-7.609 -23.49,-8.891 -14.968,-2.281 -30.046,-3.5 -45.118,-4.857 -14.432,-1.299 -28.916,-2.802 -43.026,-6.222 -15.206,-3.686 -29.805,-9.49 -43.231,-17.556 -24.608,-14.785 -46.48,-39.293 -54.788,-67.101 -4.261,-14.259 -4.879,-29.236 -1.425,-43.737 3.226,-13.547 9.043,-26.205 14.26,-39.057 4.956,-12.211 9.594,-24.989 9.999,-38.309 0.413,-13.574 -3.464,-26.339 -11.159,-37.506 -7.327,-10.632 -16.737,-19.535 -24.728,-29.632 -9.49,-11.993 -15.334,-25.376 -16.309,-40.782 -1.467,-23.138 6.199,-45.158 10.728,-67.607 h 128.002 c -0.063,9.689 -0.769,19.374 -0.847,29.069 -0.116,14.57 -1.992,29.245 -3.217,43.756 -1.198,14.163 -2.331,28.345 -2.739,42.558 -0.437,15.258 -0.515,30.689 2.592,45.703 2.615,12.632 7.003,24.931 13.271,36.221 12.538,22.583 32.063,41.105 55.874,51.377 12.273,5.293 25.444,8.884 38.876,8.934 14.121,0.052 28.041,-2.766 41.721,-6.02 27.318,-6.495 57.646,-16.475 85.287,-6.055 13.611,5.131 24.105,14.684 29.314,28.412 4.709,12.408 5.584,25.986 4.649,39.129 -2.508,35.198 -10.908,69.929 -10.723,105.322 0.139,26.524 8.846,53.551 24.947,74.725 C -3.877,-4.493 -1.977,-2.204 0,0" /></g><g
         transform="matrix(0.16904895,0,0,0.16904895,111.7265,493.89319)"
         id="g34"><path
           inkscape:connector-curvature="0"
           id="path36"
           style="fill:#000000;fill-opacity:0.94117647;fill-rule:nonzero;stroke:none"
           d="m 0,0 c -7.322,-14.126 -15.889,-32.447 -10.021,-48.556 5.32,-14.606 22.304,-24.775 37.662,-23.349 14.953,1.387 28.029,11.033 39.642,19.783 7.215,5.435 14.33,11.251 21.809,16.474 V 36.126 H 20.643 C 14.086,23.919 6.373,12.294 0,0" /></g><g
         transform="matrix(0.16904895,0,0,0.16904895,119.78141,472.65057)"
         id="g38"><path
           inkscape:connector-curvature="0"
           id="path40"
           style="fill:#000000;fill-opacity:0.94117647;fill-rule:nonzero;stroke:none"
           d="m 0,0 c -8.711,-4.977 -16.047,-12.067 -21.01,-20.82 -6.269,-11.059 -9.631,-24.205 -10.371,-36.84 -1.656,-28.217 7.313,-55.598 9.567,-83.526 0.568,-7.042 0.789,-14.138 0.259,-21.19 -0.433,-5.778 -1.043,-11.805 -2.914,-17.323 -2.476,-7.306 -7.181,-13.503 -13.775,-17.572 -14.705,-9.074 -33.836,-8.909 -50.518,-8.596 -8.916,0.167 -17.832,0.653 -26.752,0.586 -9.836,-0.072 -19.564,-1.418 -29.154,-3.603 -21.066,-4.801 -41.674,-13.759 -57.834,-28.362 -16.394,-14.816 -27.105,-34.655 -30.555,-56.494 -2.31,-14.634 -1.75,-29.685 -1.423,-44.474 H 41.443 V 10.04 C 26.877,9.83 12.486,7.134 0,0" /></g></g><g
       id="g402"
       transform="matrix(0.16904895,0,0,0.16904895,124.7535,463.18985)"><path
         d="M 0,0 C 4.837,0 4.837,7.5 0,7.5 -4.837,7.5 -4.837,0 0,0"
         style="fill:#fbf49c;fill-opacity:1;fill-rule:nonzero;stroke:none"
         id="path404"
         inkscape:connector-curvature="0" /></g><g
       id="g1174"
       transform="matrix(0.16904895,0,0,0.16904895,43.539932,483.55083)" /><g
       id="g1178"
       transform="matrix(0.16904895,0,0,0.16904895,36.34132,446.15816)" /><g
       id="g1182"
       transform="matrix(0.16904895,0,0,0.16904895,88.239264,418.26509)" /><g
       id="g1186"
       transform="matrix(0.16904895,0,0,0.16904895,98.044103,467.12023)" /><g
       id="g1190"
       transform="matrix(0.16904895,0,0,0.16904895,6.0815584,452.24393)" /><g
       id="g1194"
       transform="matrix(0.16904895,0,0,0.16904895,123.90859,450.55344)" /><g
       id="g1198"
       transform="matrix(0.16904895,0,0,0.16904895,79.279669,496.0276)" /><g
       id="g1202"
       transform="matrix(0.16904895,0,0,0.16904895,3.0386773,490.3856)" /><g
       id="g1206"
       transform="matrix(0.16904895,0,0,0.16904895,33.467488,468.24018)" /><g
       id="g1210"
       transform="matrix(0.16904895,0,0,0.16904895,92.634536,448.9686)" /><g
       id="g1214"
       transform="matrix(0.16904895,0,0,0.16904895,120.52761,482.1022)" /><g
       id="g1218"
       transform="matrix(0.16904895,0,0,0.16904895,13.181614,427.83748)" /><g
       id="g1222"
       transform="matrix(0.16904895,0,0,0.16904895,114.44185,429.35893)" /><g
       id="g1226"
       transform="matrix(0.16904895,0,0,0.16904895,74.208201,486.60313)" /><g
       id="g1230"
       transform="matrix(0.16904895,0,0,0.16904895,45.300915,465.13391)" /><g
       id="g1234"
       transform="matrix(0.16904895,0,0,0.16904895,7.43395,475.78399)" /><g
       id="g1238"
       transform="matrix(0.16904895,0,0,0.16904895,59.501027,431.15507)" /><g
       id="g1242"
       transform="matrix(0.16904895,0,0,0.16904895,109.37038,438.59322)" /><g
       id="g1246"
       transform="matrix(0.16904895,0,0,0.16904895,106.15845,486.26503)" /><g
       id="g1250"
       transform="matrix(0.16904895,0,0,0.16904895,81.984452,467.35268)" /><g
       id="g1254"
       transform="matrix(0.16904895,0,0,0.16904895,31.269852,424.92139)" /><g
       id="g1258"
       transform="matrix(0.16904895,0,0,0.16904895,55.950999,479.69325)" /><g
       id="g1262"
       transform="matrix(0.16904895,0,0,0.16904895,107.17275,453.32161)" /><g
       id="g1266"
       transform="matrix(0.16904895,0,0,0.16904895,65.924971,467.01458)" /><g
       id="g1270"
       transform="matrix(0.16904895,0,0,0.16904895,65.079726,416.97609)" /><g
       id="g1274"
       transform="matrix(0.16904895,0,0,0.16904895,13.350663,417.82133)" /><g
       id="g1278"
       transform="matrix(0.16904895,0,0,0.16904895,119.68237,462.78835)" /><g
       id="g1282"
       transform="matrix(0.16904895,0,0,0.16904895,32.284146,496.4291)" /><g
       id="g1286"
       transform="matrix(0.16904895,0,0,0.16904895,99.227445,435.40242)" /><g
       id="g1290"
       transform="matrix(0.16904895,0,0,0.16904895,89.253557,478.67896)" /><g
       id="g1294"
       transform="matrix(0.16904895,0,0,0.16904895,18.929279,469.71936)" /><g
       id="g1298"
       transform="matrix(0.16904895,0,0,0.16904895,73.362956,426.44283)" /><g
       id="g1302"
       transform="matrix(0.16904895,0,0,0.16904895,18.929279,442.67153)" /><g
       id="g1306"
       transform="matrix(0.16904895,0,0,0.16904895,68.798634,444.25636)" /><g
       id="g1310"
       transform="matrix(0.16904895,0,0,0.16904895,59.839124,491.46328)" /><g
       id="g1314"
       transform="matrix(0.16904895,0,0,0.16904895,98.551249,496.83059)" /><g
       id="g1318"
       transform="matrix(0.16904895,0,0,0.16904895,4.7291668,437.8325)" /><g
       id="g1170"
       transform="matrix(0.16904895,0,0,0.16904895,48.800699,469.70561)"><g
         id="g5083"><path
           inkscape:connector-curvature="0"
           id="path808"
           style="fill:#ffffff;fill-opacity:1;fill-rule:nonzero;stroke:none"
           d="M 0,0 C 3.224,0 3.224,5 0,5 -3.224,5 -3.224,0 0,0"
           transform="translate(-265.3994,-64.210869)" /><path
           inkscape:connector-curvature="0"
           id="path824"
           style="fill:#ffffff;fill-opacity:1;fill-rule:nonzero;stroke:none"
           d="M 0,0 C 3.224,0 3.224,5 0,5 -3.224,5 -3.224,0 0,0"
           transform="translate(-36.399397,121.53912)" /><path
           inkscape:connector-curvature="0"
           id="path840"
           style="fill:#ffffff;fill-opacity:1;fill-rule:nonzero;stroke:none"
           d="M 0,0 C 4.03,0 4.03,6.25 0,6.25 -4.03,6.25 -4.03,0 0,0"
           transform="translate(129.8501,-117.83587)" /><path
           inkscape:connector-curvature="0"
           id="path880"
           style="fill:#ffffff;fill-opacity:1;fill-rule:evenodd;stroke:none"
           d="m 0,0 c 0.361,-2.759 -1.617,-5.56 -3.951,-6.899 -3.028,-1.739 -5.033,1.298 -5.25,3.949 -0.237,2.886 0.834,6.551 4.051,7.472 C -2.184,5.373 0,2.616 0,0 0.383,-2.919 0,0.37 0,0"
           transform="translate(378.78962,-206.04978)" /><path
           inkscape:connector-curvature="0"
           id="path884"
           style="fill:#ffffff;fill-opacity:1;fill-rule:evenodd;stroke:none"
           d="m 0,0 c 0.361,-2.759 -1.617,-5.56 -3.951,-6.899 -3.028,-1.739 -5.033,1.298 -5.25,3.949 -0.237,2.886 0.834,6.551 4.051,7.472 C -2.184,5.373 0,2.616 0,0 0.383,-2.919 0,0.37 0,0"
           transform="translate(396.78964,-194.04977)" /><path
           inkscape:connector-curvature="0"
           id="path888"
           style="fill:#ffffff;fill-opacity:1;fill-rule:evenodd;stroke:none"
           d="m 0,0 c 0.217,-1.655 -0.971,-3.336 -2.371,-4.14 -1.816,-1.043 -3.02,0.78 -3.149,2.369 -0.142,1.732 0.5,3.931 2.43,4.484 C -1.311,3.224 0,1.57 0,0 0.23,-1.751 0,0.222 0,0"
           transform="translate(397.97709,-213.59571)" /><path
           inkscape:connector-curvature="0"
           id="path892"
           style="fill:#ffffff;fill-opacity:1;fill-rule:evenodd;stroke:none"
           d="m 0,0 c 0.068,-1.283 0.662,-3.742 -0.547,-4.691 -1.355,-1.066 -3.295,0.03 -4.082,1.222 -0.896,1.359 -1.648,3.229 0.131,4.276 C -3.253,1.54 -0.019,2.338 0,0 0.059,-1.1 -0.008,0.971 0,0"
           transform="translate(-170.0478,-215.61708)" /><path
           inkscape:connector-curvature="0"
           id="path896"
           style="fill:#ffffff;fill-opacity:1;fill-rule:evenodd;stroke:none"
           d="m 0,0 c 0.114,-2.139 1.104,-6.236 -0.911,-7.819 -2.26,-1.775 -5.491,0.051 -6.803,2.038 -1.495,2.264 -2.748,5.381 0.218,7.127 C -5.421,2.566 -0.03,3.896 0,0 0.098,-1.834 -0.013,1.618 0,0"
           transform="translate(-150.2568,-202.4277)" /><path
           inkscape:connector-curvature="0"
           id="path900"
           style="fill:#ffffff;fill-opacity:1;fill-rule:evenodd;stroke:none"
           d="m 0,0 c 0.114,-2.139 1.104,-6.236 -0.911,-7.819 -2.26,-1.775 -5.491,0.051 -6.803,2.038 -1.495,2.264 -2.748,5.381 0.218,7.127 C -5.421,2.566 -0.03,3.896 0,0 0.098,-1.834 -0.013,1.618 0,0"
           transform="translate(-147.2568,-221.4277)" /><path
           inkscape:connector-curvature="0"
           id="path904"
           style="fill:#ffffff;fill-opacity:1;fill-rule:evenodd;stroke:none"
           d="m 0,0 c 0.389,-2.387 -1.94,-5.495 -4.478,-5.482 -2.356,0.011 -4.267,4.426 -3.925,6.446 0.318,1.883 3.227,4.05 5.126,3.889 C -0.634,4.628 0.123,2.245 0,0 0.357,-2.198 0.032,0.587 0,0"
           transform="translate(47.639698,99.997604)" /><path
           inkscape:connector-curvature="0"
           id="path908"
           style="fill:#ffffff;fill-opacity:1;fill-rule:evenodd;stroke:none"
           d="m 0,0 c 0.389,-2.387 -1.94,-5.495 -4.478,-5.482 -2.356,0.011 -4.267,4.426 -3.925,6.446 0.318,1.883 3.227,4.05 5.126,3.889 C -0.634,4.628 0.123,2.245 0,0 0.357,-2.198 0.032,0.587 0,0"
           transform="translate(65.639699,111.99762)" /><path
           inkscape:connector-curvature="0"
           id="path912"
           style="fill:#ffffff;fill-opacity:1;fill-rule:evenodd;stroke:none"
           d="m 0,0 c 0.233,-1.432 -1.165,-3.297 -2.687,-3.29 -1.414,0.007 -2.56,2.657 -2.355,3.869 0.191,1.129 1.937,2.429 3.075,2.333 C -0.38,2.777 0.073,1.347 0,0 0.214,-1.319 0.019,0.352 0,0"
           transform="translate(66.984397,92.873101)" /><path
           inkscape:connector-curvature="0"
           id="path916"
           style="fill:#ffffff;fill-opacity:1;fill-rule:evenodd;stroke:none"
           d="M 0,0 C 2.7,-0.006 4.897,-0.542 4.275,-3.77 3.708,-6.716 2.413,-8.22 -0.814,-8.294 -3.194,-8.349 -4.796,-6.091 -4.976,-3.799 -5.227,-0.583 -2.49,0.008 0,0 0.638,-0.001 -0.479,0.001 0,0"
           transform="translate(-222.688,77.588888)" /><path
           inkscape:connector-curvature="0"
           id="path920"
           style="fill:#ffffff;fill-opacity:1;fill-rule:evenodd;stroke:none"
           d="M 0,0 C 1.619,-0.004 2.938,-0.325 2.565,-2.262 2.225,-4.03 1.447,-4.932 -0.488,-4.977 -1.916,-5.009 -2.878,-3.655 -2.985,-2.279 -3.137,-0.35 -1.494,0.005 0,0 0.383,-0.001 -0.287,0.001 0,0"
           transform="translate(-204.8096,87.92968)" /><path
           inkscape:connector-curvature="0"
           id="path924"
           style="fill:#ffffff;fill-opacity:1;fill-rule:evenodd;stroke:none"
           d="M 0,0 C 2.699,-0.006 4.897,-0.542 4.275,-3.77 3.707,-6.716 2.412,-8.22 -0.814,-8.294 -3.194,-8.349 -4.797,-6.091 -4.976,-3.799 -5.228,-0.583 -2.49,0.008 0,0 0.638,-0.001 -0.479,0.001 0,0"
           transform="translate(-201.6875,70.588902)" /><path
           inkscape:connector-curvature="0"
           id="path928"
           style="fill:#ffffff;fill-opacity:1;fill-rule:evenodd;stroke:none"
           d="m 0,0 c -0.01,-1.368 -0.955,-2.184 -2.307,-2.062 -1.722,0.156 -3.49,0.197 -3.097,2.491 0.242,1.412 1.547,3.032 3.109,2.834 C -0.504,3.036 -0.213,1.491 0,0 -0.012,-1.577 -0.068,0.473 0,0"
           transform="translate(369.98881,88.848705)" /><path
           inkscape:connector-curvature="0"
           id="path932"
           style="fill:#ffffff;fill-opacity:1;fill-rule:evenodd;stroke:none"
           d="m 0,0 c -0.018,-2.28 -1.592,-3.64 -3.844,-3.436 -2.871,0.26 -5.818,0.327 -5.162,4.151 0.402,2.353 2.576,5.053 5.18,4.723 C -0.838,5.06 -0.354,2.485 0,0 -0.02,-2.627 -0.113,0.789 0,0"
           transform="translate(389.80912,100.44682)" /><path
           inkscape:connector-curvature="0"
           id="path936"
           style="fill:#ffffff;fill-opacity:1;fill-rule:evenodd;stroke:none"
           d="m 0,0 c -0.018,-2.28 -1.592,-3.64 -3.844,-3.436 -2.871,0.26 -5.818,0.327 -5.162,4.151 0.402,2.353 2.576,5.053 5.18,4.723 C -0.838,5.06 -0.354,2.485 0,0 -0.02,-2.627 -0.113,0.789 0,0"
           transform="translate(392.80914,81.446823)" /><path
           inkscape:connector-curvature="0"
           id="path940"
           style="fill:#ffffff;fill-opacity:1;fill-rule:evenodd;stroke:none"
           d="m 0,0 c -0.287,-1.933 -0.604,-4.204 -3.076,-4.064 -1.992,0.111 -5.895,0.54 -5.582,3.344 0.236,2.113 1.826,4.73 4.088,4.942 C -2.176,4.445 0.082,2.43 0,0 -0.066,-0.449 0.092,2.739 0,0"
           transform="translate(203.41851,-96.027274)" /><path
           inkscape:connector-curvature="0"
           id="path944"
           style="fill:#ffffff;fill-opacity:1;fill-rule:evenodd;stroke:none"
           d="m 0,0 c -0.172,-1.159 -0.363,-2.521 -1.846,-2.438 -1.195,0.067 -3.537,0.324 -3.349,2.006 0.142,1.268 1.095,2.838 2.453,2.965 C -1.307,2.668 0.049,1.458 0,0 -0.041,-0.27 0.055,1.645 0,0"
           transform="translate(219.68991,-83.994076)" /><path
           inkscape:connector-curvature="0"
           id="path948"
           style="fill:#ffffff;fill-opacity:1;fill-rule:evenodd;stroke:none"
           d="m 0,0 c -0.287,-1.933 -0.604,-4.204 -3.076,-4.064 -1.992,0.111 -5.895,0.54 -5.582,3.344 0.236,2.113 1.826,4.73 4.088,4.942 C -2.176,4.445 0.082,2.43 0,0 -0.066,-0.449 0.092,2.739 0,0"
           transform="translate(224.41851,-103.02732)" /><path
           inkscape:connector-curvature="0"
           id="path952"
           style="fill:#ffffff;fill-opacity:1;fill-rule:evenodd;stroke:none"
           d="m 0,0 c 0.068,-1.283 0.662,-3.741 -0.547,-4.691 -1.355,-1.065 -3.295,0.031 -4.082,1.222 -0.896,1.36 -1.648,3.229 0.131,4.277 C -3.253,1.541 -0.019,2.338 0,0 0.059,-1.1 -0.008,0.971 0,0"
           transform="translate(-73.080997,-27.862284)" /><path
           inkscape:connector-curvature="0"
           id="path956"
           style="fill:#ffffff;fill-opacity:1;fill-rule:evenodd;stroke:none"
           d="m 0,0 c -0.01,-1.368 -0.955,-2.185 -2.307,-2.062 -1.722,0.157 -3.49,0.197 -3.097,2.491 0.242,1.412 1.547,3.032 3.109,2.834 C -0.504,3.036 -0.213,1.491 0,0 -0.012,-1.577 -0.068,0.474 0,0"
           transform="translate(277.24661,-296.66697)" /><path
           inkscape:connector-curvature="0"
           id="path960"
           style="fill:#ffffff;fill-opacity:1;fill-rule:evenodd;stroke:none"
           d="m 0,0 c -0.172,-1.159 -0.361,-2.521 -1.844,-2.438 -1.197,0.067 -3.539,0.324 -3.349,2.006 0.14,1.268 1.093,2.838 2.451,2.965 C -1.305,2.668 0.049,1.458 0,0 -0.039,-0.27 0.057,1.645 0,0"
           transform="translate(232.82668,167.70563)" /><path
           inkscape:connector-curvature="0"
           id="path964"
           style="fill:#ffffff;fill-opacity:1;fill-rule:evenodd;stroke:none"
           d="m 0,0 c 0.217,-1.654 -0.971,-3.336 -2.371,-4.139 -1.816,-1.043 -3.02,0.78 -3.149,2.369 -0.142,1.731 0.5,3.93 2.43,4.483 C -1.311,3.225 0,1.57 0,0 0.23,-1.75 0,0.223 0,0"
           transform="translate(-269.4365,-138.89161)" /><path
           inkscape:connector-curvature="0"
           id="path968"
           style="fill:#ffffff;fill-opacity:1;fill-rule:evenodd;stroke:none"
           d="m 0,0 c 0.234,-1.432 -1.164,-3.297 -2.686,-3.289 -1.414,0.006 -2.56,2.656 -2.355,3.867 0.191,1.13 1.936,2.43 3.074,2.334 C -0.379,2.777 0.074,1.348 0,0 0.215,-1.318 0.02,0.352 0,0"
           transform="translate(321.85399,12.2251)" /><path
           inkscape:connector-curvature="0"
           id="path972"
           style="fill:#ffffff;fill-opacity:1;fill-rule:evenodd;stroke:none"
           d="m 0,0 c 0.055,-1.025 0.53,-2.992 -0.437,-3.752 -1.084,-0.852 -2.635,0.024 -3.266,0.978 -0.717,1.087 -1.318,2.583 0.105,3.42 C -2.602,1.233 -0.014,1.871 0,0 0.047,-0.879 -0.006,0.777 0,0"
           transform="translate(-112.7891,-299.31046)" /><path
           inkscape:connector-curvature="0"
           id="path976"
           style="fill:#ffffff;fill-opacity:1;fill-rule:evenodd;stroke:none"
           d="m 0,0 c -0.008,-1.095 -0.764,-1.747 -1.846,-1.649 -1.377,0.125 -2.791,0.157 -2.476,1.992 0.193,1.13 1.236,2.426 2.486,2.267 C -0.402,2.429 -0.17,1.192 0,0 -0.01,-1.262 -0.055,0.379 0,0"
           transform="translate(101.3706,-255.52629)" /><path
           inkscape:connector-curvature="0"
           id="path980"
           style="fill:#ffffff;fill-opacity:1;fill-rule:evenodd;stroke:none"
           d="m 0,0 c -0.138,-0.928 -0.29,-2.018 -1.476,-1.951 -0.957,0.054 -2.83,0.26 -2.679,1.605 0.113,1.014 0.875,2.271 1.961,2.372 C -1.044,2.134 0.039,1.166 0,0 -0.032,-0.216 0.044,1.315 0,0"
           transform="translate(-66.272503,163.8203)" /><path
           inkscape:connector-curvature="0"
           id="path984"
           style="fill:#ffffff;fill-opacity:1;fill-rule:evenodd;stroke:none"
           d="m 0,0 c 0.174,-1.323 -0.777,-2.669 -1.896,-3.312 -1.454,-0.834 -2.416,0.624 -2.52,1.897 -0.113,1.384 0.4,3.143 1.943,3.586 C -1.049,2.579 0,1.257 0,0 0.184,-1.399 0,0.179 0,0"
           transform="translate(369.4341,-98.133765)" /><path
           inkscape:connector-curvature="0"
           id="path988"
           style="fill:#ffffff;fill-opacity:1;fill-rule:evenodd;stroke:none"
           d="m 0,0 c 0.187,-1.146 -0.932,-2.638 -2.148,-2.631 -1.133,0.004 -2.049,2.125 -1.885,3.093 0.152,0.904 1.549,1.944 2.459,1.868 C -0.305,2.222 0.059,1.078 0,0 0.172,-1.055 0.016,0.281 0,0"
           transform="translate(131.8384,-34.562002)" /><path
           inkscape:connector-curvature="0"
           id="path992"
           style="fill:#ffffff;fill-opacity:1;fill-rule:evenodd;stroke:none"
           d="m 0,0 c 0.045,-0.82 0.426,-2.394 -0.35,-3.002 -0.867,-0.682 -2.107,0.02 -2.611,0.783 -0.574,0.869 -1.055,2.067 0.084,2.737 C -2.08,0.986 -0.01,1.497 0,0 0.039,-0.703 -0.004,0.622 0,0"
           transform="translate(323.67241,-179.2734)" /><path
           inkscape:connector-curvature="0"
           id="path996"
           style="fill:#ffffff;fill-opacity:1;fill-rule:evenodd;stroke:none"
           d="m 0,0 c -0.008,-0.876 -0.611,-1.398 -1.477,-1.319 -1.101,0.099 -2.234,0.125 -1.982,1.593 0.154,0.904 0.99,1.941 1.99,1.814 C -0.322,1.942 -0.137,0.954 0,0 -0.008,-1.01 -0.045,0.303 0,0"
           transform="translate(426.84808,-299.41108)" /><path
           inkscape:connector-curvature="0"
           id="path1000"
           style="fill:#ffffff;fill-opacity:1;fill-rule:evenodd;stroke:none"
           d="m 0,0 c -0.109,-0.742 -0.232,-1.614 -1.18,-1.561 -0.765,0.043 -2.264,0.208 -2.144,1.285 0.091,0.811 0.7,1.816 1.568,1.897 C -0.835,1.708 0.031,0.933 0,0 -0.025,-0.172 0.035,1.053 0,0"
           transform="translate(-4.2235979,73.409213)" /><path
           inkscape:connector-curvature="0"
           id="path1004"
           style="fill:#ffffff;fill-opacity:1;fill-rule:evenodd;stroke:none"
           d="m 0,0 c 0.138,-1.059 -0.622,-2.135 -1.519,-2.649 -1.162,-0.667 -1.931,0.499 -2.013,1.516 -0.092,1.108 0.32,2.515 1.554,2.869 C -0.839,2.063 0,1.004 0,0 0.147,-1.121 0,0.143 0,0"
           transform="translate(-204.6484,-59.169902)" /><path
           inkscape:connector-curvature="0"
           id="path1008"
           style="fill:#ffffff;fill-opacity:1;fill-rule:evenodd;stroke:none"
           d="m 0,0 c 0.15,-0.917 -0.746,-2.111 -1.719,-2.105 -0.906,0.003 -1.638,1.699 -1.508,2.474 0.122,0.723 1.239,1.555 1.967,1.494 C -0.243,1.777 0.047,0.861 0,0 0.137,-0.844 0.012,0.225 0,0"
           transform="translate(-41.553698,-137.31827)" /><path
           inkscape:connector-curvature="0"
           id="path1012"
           style="fill:#ffffff;fill-opacity:1;fill-rule:evenodd;stroke:none"
           d="m 0,0 c 0.035,-0.656 0.34,-1.914 -0.28,-2.401 -0.695,-0.545 -1.687,0.016 -2.09,0.626 -0.458,0.695 -0.844,1.653 0.067,2.189 C -1.664,0.789 -0.008,1.197 0,0 0.029,-0.562 -0.004,0.498 0,0"
           transform="translate(-258.9434,-297.82611)" /><path
           inkscape:connector-curvature="0"
           id="path1016"
           style="fill:#ffffff;fill-opacity:1;fill-rule:evenodd;stroke:none"
           d="m 0,0 c -0.006,-0.701 -0.49,-1.119 -1.182,-1.056 -0.881,0.08 -1.787,0.101 -1.586,1.275 0.123,0.723 0.791,1.552 1.592,1.451 C -0.258,1.554 -0.109,0.763 0,0 -0.008,-0.808 -0.037,0.242 0,0"
           transform="translate(241.69582,2.1103961)" /><path
           inkscape:connector-curvature="0"
           id="path1020"
           style="fill:#ffffff;fill-opacity:1;fill-rule:evenodd;stroke:none"
           d="m 0,0 c -0.088,-0.594 -0.186,-1.291 -0.943,-1.249 -0.614,0.035 -1.813,0.166 -1.715,1.027 0.072,0.651 0.558,1.453 1.254,1.519 C -0.668,1.366 0.025,0.747 0,0 -0.02,-0.138 0.029,0.843 0,0"
           transform="translate(155.8325,-150.01661)" /><path
           inkscape:connector-curvature="0"
           id="path1024"
           style="fill:#ffffff;fill-opacity:1;fill-rule:evenodd;stroke:none"
           d="m 0,0 c 0.111,-0.847 -0.496,-1.708 -1.215,-2.119 -0.93,-0.534 -1.545,0.399 -1.609,1.213 -0.074,0.886 0.256,2.012 1.242,2.295 C -0.67,1.651 0,0.804 0,0 0.119,-0.896 0,0.114 0,0"
           transform="translate(136.3892,69.712885)" /><path
           inkscape:connector-curvature="0"
           id="path1028"
           style="fill:#ffffff;fill-opacity:1;fill-rule:evenodd;stroke:none"
           d="m 0,0 c 0.121,-0.733 -0.598,-1.688 -1.375,-1.684 -0.725,0.003 -1.311,1.36 -1.207,1.98 0.098,0.579 0.992,1.244 1.574,1.195 C -0.195,1.422 0.037,0.69 0,0 0.109,-0.675 0.01,0.18 0,0"
           transform="translate(442.54347,152.7173)" /><path
           inkscape:connector-curvature="0"
           id="path1032"
           style="fill:#ffffff;fill-opacity:1;fill-rule:evenodd;stroke:none"
           d="m 0,0 c 0.029,-0.525 0.271,-1.532 -0.224,-1.921 -0.554,-0.436 -1.348,0.012 -1.672,0.5 -0.367,0.557 -0.674,1.323 0.055,1.752 C -1.332,0.631 -0.006,0.958 0,0 0.025,-0.451 -0.002,0.398 0,0"
           transform="translate(34.726596,-45.230392)" /><path
           inkscape:connector-curvature="0"
           id="path1036"
           style="fill:#ffffff;fill-opacity:1;fill-rule:evenodd;stroke:none"
           d="m 0,0 c -0.006,-0.561 -0.391,-0.895 -0.945,-0.844 -0.705,0.064 -1.43,0.08 -1.27,1.02 0.1,0.578 0.635,1.242 1.274,1.16 C -0.207,1.244 -0.088,0.611 0,0 -0.006,-0.646 -0.029,0.194 0,0"
           transform="translate(88.282702,166.2105)" /><path
           inkscape:connector-curvature="0"
           id="path1040"
           style="fill:#ffffff;fill-opacity:1;fill-rule:evenodd;stroke:none"
           d="m 0,0 c -0.07,-0.475 -0.148,-1.033 -0.755,-0.998 -0.489,0.027 -1.449,0.133 -1.372,0.821 0.057,0.519 0.447,1.163 1.004,1.214 C -0.533,1.093 0.02,0.598 0,0 -0.017,-0.11 0.022,0.674 0,0"
           transform="translate(-178.2519,-130.22258)" /><path
           inkscape:connector-curvature="0"
           id="path1044"
           style="fill:#ffffff;fill-opacity:1;fill-rule:evenodd;stroke:none"
           d="m 0,0 c 0.088,-0.678 -0.398,-1.366 -0.973,-1.695 -0.742,-0.427 -1.234,0.32 -1.289,0.97 -0.056,0.709 0.207,1.61 0.996,1.836 C -0.537,1.32 0,0.643 0,0 0.094,-0.717 0,0.092 0,0"
           transform="translate(177.44972,-307.70892)" /><path
           inkscape:connector-curvature="0"
           id="path1048"
           style="fill:#ffffff;fill-opacity:1;fill-rule:evenodd;stroke:none"
           d="m 0,0 c 0.096,-0.587 -0.478,-1.351 -1.1,-1.347 -0.581,0.002 -1.049,1.088 -0.964,1.584 0.076,0.462 0.791,0.995 1.257,0.956 C -0.156,1.138 0.03,0.552 0,0 0.088,-0.54 0.007,0.144 0,0"
           transform="translate(-268.4253,156.79399)" /><path
           inkscape:connector-curvature="0"
           id="path1052"
           style="fill:#ffffff;fill-opacity:1;fill-rule:evenodd;stroke:none"
           d="m 0,0 c 0.033,-0.615 0.318,-1.795 -0.264,-2.252 -0.65,-0.51 -1.58,0.016 -1.959,0.588 -0.429,0.652 -0.791,1.549 0.065,2.052 C -1.561,0.74 -0.008,1.123 0,0 0.027,-0.527 -0.004,0.467 0,0"
           transform="translate(376.30522,-256.32812)" /><path
           inkscape:connector-curvature="0"
           id="path1056"
           style="fill:#ffffff;fill-opacity:1;fill-rule:evenodd;stroke:none"
           d="m 0,0 c -0.006,-0.657 -0.459,-1.049 -1.107,-0.99 -0.827,0.075 -1.676,0.095 -1.488,1.196 0.116,0.677 0.743,1.455 1.493,1.36 C -0.242,1.458 -0.104,0.716 0,0 -0.006,-0.757 -0.034,0.227 0,0"
           transform="translate(-266.9531,11.75003)" /><path
           inkscape:connector-curvature="0"
           id="path1060"
           style="fill:#ffffff;fill-opacity:1;fill-rule:evenodd;stroke:none"
           d="m 0,0 c -0.082,-0.557 -0.175,-1.21 -0.885,-1.17 -0.574,0.032 -1.699,0.155 -1.609,0.963 0.068,0.608 0.525,1.362 1.177,1.423 C -0.627,1.281 0.023,0.7 0,0 -0.02,-0.129 0.025,0.79 0,0"
           transform="translate(-140.4033,56.045009)" /><path
           inkscape:connector-curvature="0"
           id="path1064"
           style="fill:#ffffff;fill-opacity:1;fill-rule:evenodd;stroke:none"
           d="m 0,0 c 0.104,-0.793 -0.467,-1.6 -1.139,-1.986 -0.871,-0.5 -1.449,0.375 -1.509,1.137 -0.069,0.831 0.24,1.886 1.166,2.152 C -0.629,1.549 0,0.754 0,0 0.111,-0.84 0,0.107 0,0"
           transform="translate(271.73682,-83.484281)" /><path
           inkscape:connector-curvature="0"
           id="path1068"
           style="fill:#ffffff;fill-opacity:1;fill-rule:evenodd;stroke:none"
           d="m 0,0 c 0.113,-0.687 -0.561,-1.583 -1.289,-1.579 -0.68,0.003 -1.229,1.275 -1.131,1.856 0.09,0.542 0.928,1.166 1.475,1.12 C -0.184,1.333 0.035,0.646 0,0 0.102,-0.633 0.008,0.169 0,0"
           transform="translate(95.292497,-125.01072)" /><path
           inkscape:connector-curvature="0"
           id="path1072"
           style="fill:#ffffff;fill-opacity:1;fill-rule:evenodd;stroke:none"
           d="m 0,0 c 0.033,-0.616 0.318,-1.796 -0.263,-2.252 -0.65,-0.511 -1.58,0.015 -1.959,0.587 -0.429,0.652 -0.791,1.551 0.064,2.053 C -1.561,0.739 -0.008,1.122 0,0 0.028,-0.527 -0.003,0.466 0,0"
           transform="translate(-2.9228,-284.02825)" /><path
           inkscape:connector-curvature="0"
           id="path1076"
           style="fill:#ffffff;fill-opacity:1;fill-rule:evenodd;stroke:none"
           d="m 0,0 c -0.005,-0.657 -0.458,-1.049 -1.107,-0.99 -0.827,0.075 -1.675,0.094 -1.487,1.196 0.116,0.677 0.742,1.455 1.492,1.36 C -0.241,1.457 -0.103,0.715 0,0 -0.006,-0.757 -0.033,0.227 0,0"
           transform="translate(-155.2441,-26.593718)" /><path
           inkscape:connector-curvature="0"
           id="path1080"
           style="fill:#ffffff;fill-opacity:1;fill-rule:evenodd;stroke:none"
           d="m 0,0 c -0.082,-0.557 -0.174,-1.21 -0.885,-1.17 -0.574,0.032 -1.698,0.155 -1.608,0.962 0.068,0.609 0.525,1.363 1.177,1.424 C -0.626,1.28 0.023,0.7 0,0 -0.019,-0.129 0.026,0.79 0,0"
           transform="translate(-247.7432,119.03032)" /><path
           inkscape:connector-curvature="0"
           id="path1084"
           style="fill:#ffffff;fill-opacity:1;fill-rule:evenodd;stroke:none"
           d="m 0,0 c 0.104,-0.794 -0.467,-1.601 -1.139,-1.987 -0.872,-0.5 -1.449,0.375 -1.51,1.138 -0.069,0.83 0.24,1.886 1.166,2.151 C -0.629,1.548 0,0.754 0,0 0.11,-0.84 0,0.107 0,0"
           transform="translate(-139.0908,160.17532)" /><path
           inkscape:connector-curvature="0"
           id="path1088"
           style="fill:#ffffff;fill-opacity:1;fill-rule:evenodd;stroke:none"
           d="m 0,0 c 0.112,-0.687 -0.56,-1.583 -1.289,-1.579 -0.68,0.003 -1.23,1.275 -1.131,1.857 0.091,0.542 0.929,1.166 1.475,1.12 C -0.183,1.333 0.035,0.647 0,0 0.103,-0.633 0.009,0.169 0,0"
           transform="translate(21.502902,135.37801)" /><path
           inkscape:connector-curvature="0"
           id="path1092"
           style="fill:#ffffff;fill-opacity:1;fill-rule:evenodd;stroke:none"
           d="m 0,0 c 0.033,-0.616 0.318,-1.795 -0.262,-2.251 -0.65,-0.512 -1.582,0.015 -1.961,0.586 -0.429,0.653 -0.791,1.55 0.065,2.053 C -1.561,0.74 -0.008,1.123 0,0 0.027,-0.527 -0.004,0.466 0,0"
           transform="translate(374.91648,15.999507)" /><path
           inkscape:connector-curvature="0"
           id="path1096"
           style="fill:#ffffff;fill-opacity:1;fill-rule:evenodd;stroke:none"
           d="m 0,0 c -0.006,-0.657 -0.459,-1.049 -1.107,-0.99 -0.827,0.075 -1.676,0.094 -1.489,1.196 0.117,0.677 0.744,1.455 1.494,1.36 C -0.242,1.457 -0.104,0.715 0,0 -0.006,-0.757 -0.035,0.227 0,0"
           transform="translate(188.32858,-48.332984)" /><path
           inkscape:connector-curvature="0"
           id="path1100"
           style="fill:#ffffff;fill-opacity:1;fill-rule:evenodd;stroke:none"
           d="m 0,0 c -0.082,-0.557 -0.175,-1.21 -0.885,-1.17 -0.574,0.032 -1.699,0.156 -1.608,0.963 0.067,0.609 0.524,1.363 1.176,1.424 C -0.627,1.281 0.023,0.7 0,0 -0.02,-0.129 0.026,0.79 0,0"
           transform="translate(-140.40431,-261.40228)" /><path
           inkscape:connector-curvature="0"
           id="path1104"
           style="fill:#ffffff;fill-opacity:1;fill-rule:evenodd;stroke:none"
           d="m 0,0 c 0.104,-0.794 -0.466,-1.602 -1.139,-1.986 -0.871,-0.5 -1.448,0.374 -1.509,1.136 -0.07,0.831 0.24,1.887 1.166,2.153 C -0.629,1.548 0,0.754 0,0 0.111,-0.84 0,0.107 0,0"
           transform="translate(-174.3242,-306.16601)" /><path
           inkscape:connector-curvature="0"
           id="path1108"
           style="fill:#ffffff;fill-opacity:1;fill-rule:evenodd;stroke:none"
           d="m 0,0 c 0.113,-0.687 -0.561,-1.583 -1.289,-1.579 -0.68,0.003 -1.229,1.274 -1.131,1.856 0.09,0.542 0.928,1.166 1.475,1.12 C -0.182,1.333 0.035,0.646 0,0 0.102,-0.633 0.008,0.168 0,0"
           transform="translate(270.27199,-242.54289)" /><path
           inkscape:connector-curvature="0"
           id="path1112"
           style="fill:#ffffff;fill-opacity:1;fill-rule:evenodd;stroke:none"
           d="m 0,0 c 0.025,-0.462 0.238,-1.347 -0.197,-1.688 -0.487,-0.383 -1.184,0.011 -1.469,0.439 -0.322,0.49 -0.594,1.163 0.049,1.539 C -1.17,0.556 -0.004,0.843 0,0 0.021,-0.396 -0.002,0.351 0,0"
           transform="translate(440.31689,-177.63382)" /><path
           inkscape:connector-curvature="0"
           id="path1116"
           style="fill:#ffffff;fill-opacity:1;fill-rule:evenodd;stroke:none"
           d="m 0,0 c -0.004,-0.492 -0.344,-0.787 -0.83,-0.742 -0.619,0.056 -1.257,0.07 -1.115,0.896 0.087,0.508 0.556,1.092 1.119,1.02 C -0.182,1.094 -0.077,0.537 0,0 -0.004,-0.568 -0.025,0.17 0,0"
           transform="translate(49.197299,-205.61707)" /><path
           inkscape:connector-curvature="0"
           id="path1120"
           style="fill:#ffffff;fill-opacity:1;fill-rule:evenodd;stroke:none"
           d="m 0,0 c -0.062,-0.418 -0.132,-0.908 -0.663,-0.879 -0.432,0.025 -1.275,0.117 -1.207,0.723 0.051,0.457 0.393,1.022 0.883,1.068 C -0.47,0.961 0.018,0.525 0,0 -0.015,-0.098 0.019,0.592 0,0"
           transform="translate(-255.0903,-214.08)" /><path
           inkscape:connector-curvature="0"
           id="path1124"
           style="fill:#ffffff;fill-opacity:1;fill-rule:evenodd;stroke:none"
           d="m 0,0 c 0.077,-0.596 -0.351,-1.201 -0.854,-1.49 -0.654,-0.375 -1.087,0.281 -1.132,0.853 -0.053,0.623 0.179,1.414 0.874,1.614 C -0.473,1.16 0,0.564 0,0 0.083,-0.631 0,0.08 0,0"
           transform="translate(-112.9443,-208.16598)" /><path
           inkscape:connector-curvature="0"
           id="path1128"
           style="fill:#ffffff;fill-opacity:1;fill-rule:evenodd;stroke:none"
           d="m 0,0 c 0.086,-0.516 -0.42,-1.187 -0.967,-1.185 -0.51,0.002 -0.922,0.957 -0.847,1.393 0.068,0.406 0.695,0.875 1.105,0.84 C -0.137,1 0.027,0.485 0,0 0.076,-0.475 0.006,0.127 0,0"
           transform="translate(199.98881,-213.99512)" /><path
           inkscape:connector-curvature="0"
           id="path1132"
           style="fill:#ffffff;fill-opacity:1;fill-rule:evenodd;stroke:none"
           d="m 0,0 c 0.023,-0.463 0.238,-1.348 -0.197,-1.689 -0.489,-0.383 -1.186,0.011 -1.471,0.44 C -1.99,-0.76 -2.26,-0.087 -1.619,0.29 -1.172,0.555 -0.006,0.842 0,0 0.02,-0.396 -0.004,0.35 0,0"
           transform="translate(345.38333,-296.1289)" /><path
           inkscape:connector-curvature="0"
           id="path1136"
           style="fill:#ffffff;fill-opacity:1;fill-rule:evenodd;stroke:none"
           d="m 0,0 c -0.004,-0.492 -0.344,-0.786 -0.83,-0.742 -0.619,0.056 -1.256,0.07 -1.115,0.896 0.088,0.509 0.556,1.092 1.119,1.021 C -0.18,1.094 -0.076,0.537 0,0 -0.004,-0.567 -0.024,0.171 0,0"
           transform="translate(-88.914996,-246.42182)" /><path
           inkscape:connector-curvature="0"
           id="path1140"
           style="fill:#ffffff;fill-opacity:1;fill-rule:evenodd;stroke:none"
           d="m 0,0 c -0.062,-0.418 -0.13,-0.908 -0.663,-0.878 -0.432,0.024 -1.274,0.116 -1.207,0.722 0.051,0.457 0.394,1.021 0.883,1.068 C -0.47,0.96 0.018,0.524 0,0 -0.015,-0.098 0.021,0.592 0,0"
           transform="translate(-136.3662,-107.1172)" /><path
           inkscape:connector-curvature="0"
           id="path1144"
           style="fill:#ffffff;fill-opacity:1;fill-rule:evenodd;stroke:none"
           d="m 0,0 c 0.078,-0.595 -0.35,-1.201 -0.854,-1.49 -0.654,-0.375 -1.087,0.281 -1.132,0.853 -0.053,0.623 0.179,1.414 0.873,1.614 C -0.471,1.161 0,0.565 0,0 0.082,-0.63 0,0.08 0,0"
           transform="translate(208.22121,21.583987)" /><path
           inkscape:connector-curvature="0"
           id="path1148"
           style="fill:#ffffff;fill-opacity:1;fill-rule:evenodd;stroke:none"
           d="m 0,0 c 0.086,-0.516 -0.418,-1.187 -0.967,-1.184 -0.51,10e-4 -0.922,0.956 -0.847,1.392 0.068,0.407 0.697,0.875 1.105,0.84 C -0.137,1 0.027,0.485 0,0 0.078,-0.475 0.008,0.126 0,0"
           transform="translate(344.26811,75.105523)" /><path
           inkscape:connector-curvature="0"
           id="path1152"
           style="fill:#ffffff;fill-opacity:1;fill-rule:evenodd;stroke:none"
           d="m 0,0 c 0.026,-0.462 0.24,-1.347 -0.195,-1.689 -0.489,-0.383 -1.186,0.012 -1.471,0.44 -0.322,0.49 -0.593,1.163 0.049,1.54 C -1.169,0.555 -0.004,0.842 0,0 0.021,-0.396 -0.002,0.35 0,0"
           transform="translate(-162.957,48.431177)" /><path
           inkscape:connector-curvature="0"
           id="path1156"
           style="fill:#ffffff;fill-opacity:1;fill-rule:evenodd;stroke:none"
           d="m 0,0 c -0.006,-0.493 -0.346,-0.787 -0.832,-0.742 -0.619,0.056 -1.256,0.07 -1.115,0.896 0.088,0.509 0.558,1.092 1.121,1.02 C -0.182,1.093 -0.078,0.537 0,0 -0.006,-0.568 -0.027,0.17 0,0"
           transform="translate(103.6519,106.29939)" /><path
           inkscape:connector-curvature="0"
           id="path1160"
           style="fill:#ffffff;fill-opacity:1;fill-rule:evenodd;stroke:none"
           d="m 0,0 c -0.062,-0.417 -0.131,-0.907 -0.664,-0.878 -0.43,0.024 -1.273,0.117 -1.207,0.723 0.051,0.457 0.394,1.021 0.883,1.067 C -0.471,0.96 0.018,0.524 0,0 -0.016,-0.097 0.02,0.593 0,0"
           transform="translate(447.01999,-139.44038)" /><path
           inkscape:connector-curvature="0"
           id="path1164"
           style="fill:#ffffff;fill-opacity:1;fill-rule:evenodd;stroke:none"
           d="m 0,0 c 0.078,-0.595 -0.35,-1.201 -0.854,-1.49 -0.654,-0.375 -1.085,0.281 -1.132,0.853 -0.053,0.623 0.179,1.415 0.875,1.614 C -0.471,1.161 0,0.565 0,0 0.084,-0.63 0,0.08 0,0"
           transform="translate(448.0786,11.049405)" /><path
           inkscape:connector-curvature="0"
           id="path1168"
           style="fill:#ffffff;fill-opacity:1;fill-rule:evenodd;stroke:none"
           d="m 0,0 c 0.086,-0.516 -0.42,-1.187 -0.967,-1.184 -0.51,0.002 -0.92,0.956 -0.847,1.392 0.068,0.407 0.697,0.875 1.107,0.84 C -0.135,1 0.027,0.485 0,0 0.078,-0.475 0.008,0.126 0,0"
           transform="translate(324.6978,158.73201)" /></g></g><g
       id="g1322"
       transform="matrix(0.16904895,0,0,0.16904895,102.61745,420.6035)"><g
         id="g5160"><path
           inkscape:connector-curvature="0"
           id="path1176"
           style="fill:#ffffff;fill-opacity:0.94117647;fill-rule:nonzero;stroke:none"
           d="M 0,0 C 3.224,0 3.224,5 0,5 -3.224,5 -3.224,0 0,0"
           transform="translate(-352.41649,372.44431)" /><path
           inkscape:connector-curvature="0"
           id="path1180"
           style="fill:#ffffff;fill-opacity:0.94117647;fill-rule:nonzero;stroke:none"
           d="M 0,0 C 3.224,0 3.224,5 0,5 -3.224,5 -3.224,0 0,0"
           transform="translate(-394.9995,151.24998)" /><path
           inkscape:connector-curvature="0"
           id="path1184"
           style="fill:#ffffff;fill-opacity:0.94117647;fill-rule:nonzero;stroke:none"
           d="M 0,0 C 3.225,0 3.225,5 0,5 -3.225,5 -3.225,0 0,0"
           transform="translate(-88.000001,-13.749994)" /><path
           inkscape:connector-curvature="0"
           id="path1188"
           style="fill:#ffffff;fill-opacity:0.94117647;fill-rule:nonzero;stroke:none"
           d="M 0,0 C 3.225,0 3.225,5 0,5 -3.225,5 -3.225,0 0,0"
           transform="translate(-29.999994,275.24998)" /><path
           inkscape:connector-curvature="0"
           id="path1192"
           style="fill:#ffffff;fill-opacity:0.94117647;fill-rule:nonzero;stroke:none"
           d="M 0,0 C 3.224,0 3.224,5 0,5 -3.224,5 -3.224,0 0,0"
           transform="translate(-573.99949,187.25003)" /><path
           inkscape:connector-curvature="0"
           id="path1196"
           style="fill:#ffffff;fill-opacity:0.94117647;fill-rule:nonzero;stroke:none"
           d="M 0,0 C 3.225,0 3.225,5 0,5 -3.225,5 -3.225,0 0,0"
           transform="translate(122.99998,177.25002)" /><path
           inkscape:connector-curvature="0"
           id="path1200"
           style="fill:#ffffff;fill-opacity:0.94117647;fill-rule:nonzero;stroke:none"
           d="M 0,0 C 3.225,0 3.225,5 0,5 -3.225,5 -3.225,0 0,0"
           transform="translate(-140.99998,446.24998)" /><path
           inkscape:connector-curvature="0"
           id="path1204"
           style="fill:#ffffff;fill-opacity:0.94117647;fill-rule:nonzero;stroke:none"
           d="M 0,0 C 2.418,0 2.418,3.75 0,3.75 -2.418,3.75 -2.418,0 0,0"
           transform="translate(-591.99949,412.87503)" /><path
           inkscape:connector-curvature="0"
           id="path1208"
           style="fill:#ffffff;fill-opacity:0.94117647;fill-rule:nonzero;stroke:none"
           d="M 0,0 C 2.418,0 2.418,3.75 0,3.75 -2.418,3.75 -2.418,0 0,0"
           transform="translate(-411.99949,281.87498)" /><path
           inkscape:connector-curvature="0"
           id="path1212"
           style="fill:#ffffff;fill-opacity:0.94117647;fill-rule:nonzero;stroke:none"
           d="M 0,0 C 2.418,0 2.418,3.75 0,3.75 -2.418,3.75 -2.418,0 0,0"
           transform="translate(-62.000016,167.87499)" /><path
           inkscape:connector-curvature="0"
           id="path1216"
           style="fill:#ffffff;fill-opacity:0.94117647;fill-rule:nonzero;stroke:none"
           d="M 0,0 C 2.418,0 2.418,3.75 0,3.75 -2.418,3.75 -2.418,0 0,0"
           transform="translate(102.99999,363.87502)" /><path
           inkscape:connector-curvature="0"
           id="path1220"
           style="fill:#ffffff;fill-opacity:0.94117647;fill-rule:nonzero;stroke:none"
           d="M 0,0 C 2.418,0 2.418,3.75 0,3.75 -2.418,3.75 -2.418,0 0,0"
           transform="translate(-531.9995,42.874978)" /><path
           inkscape:connector-curvature="0"
           id="path1224"
           style="fill:#ffffff;fill-opacity:0.94117647;fill-rule:nonzero;stroke:none"
           d="M 0,0 C 2.418,0 2.418,3.75 0,3.75 -2.418,3.75 -2.418,0 0,0"
           transform="translate(66.999989,51.875034)" /><path
           inkscape:connector-curvature="0"
           id="path1228"
           style="fill:#ffffff;fill-opacity:0.94117647;fill-rule:nonzero;stroke:none"
           d="M 0,0 C 1.612,0 1.612,2.5 0,2.5 -1.612,2.5 -1.612,0 0,0"
           transform="translate(-170.99999,390.50003)" /><path
           inkscape:connector-curvature="0"
           id="path1232"
           style="fill:#ffffff;fill-opacity:0.94117647;fill-rule:nonzero;stroke:none"
           d="M 0,0 C 1.612,0 1.612,2.5 0,2.5 -1.612,2.5 -1.612,0 0,0"
           transform="translate(-341.99949,263.50001)" /><path
           inkscape:connector-curvature="0"
           id="path1236"
           style="fill:#ffffff;fill-opacity:0.94117647;fill-rule:nonzero;stroke:none"
           d="M 0,0 C 1.612,0 1.612,2.5 0,2.5 -1.612,2.5 -1.612,0 0,0"
           transform="translate(-565.99949,326.49999)" /><path
           inkscape:connector-curvature="0"
           id="path1240"
           style="fill:#ffffff;fill-opacity:0.94117647;fill-rule:nonzero;stroke:none"
           d="M 0,0 C 1.612,0 1.612,2.5 0,2.5 -1.612,2.5 -1.612,0 0,0"
           transform="translate(-257.99949,62.500002)" /><path
           inkscape:connector-curvature="0"
           id="path1244"
           style="fill:#ffffff;fill-opacity:0.94117647;fill-rule:nonzero;stroke:none"
           d="M 0,0 C 1.612,0 1.612,2.5 0,2.5 -1.612,2.5 -1.612,0 0,0"
           transform="translate(36.99998,106.49998)" /><path
           inkscape:connector-curvature="0"
           id="path1248"
           style="fill:#ffffff;fill-opacity:0.94117647;fill-rule:nonzero;stroke:none"
           d="M 0,0 C 1.612,0 1.612,2.5 0,2.5 -1.612,2.5 -1.612,0 0,0"
           transform="translate(17.999994,388.50002)" /><path
           inkscape:connector-curvature="0"
           id="path1252"
           style="fill:#ffffff;fill-opacity:0.94117647;fill-rule:nonzero;stroke:none"
           d="M 0,0 C 2.74,0 2.74,4.25 0,4.25 -2.74,4.25 -2.74,0 0,0"
           transform="translate(-125.00001,276.62502)" /><path
           inkscape:connector-curvature="0"
           id="path1256"
           style="fill:#ffffff;fill-opacity:0.94117647;fill-rule:nonzero;stroke:none"
           d="M 0,0 C 2.741,0 2.741,4.25 0,4.25 -2.741,4.25 -2.741,0 0,0"
           transform="translate(-424.99949,25.625008)" /><path
           inkscape:connector-curvature="0"
           id="path1260"
           style="fill:#ffffff;fill-opacity:0.94117647;fill-rule:nonzero;stroke:none"
           d="M 0,0 C 2.741,0 2.741,4.25 0,4.25 -2.741,4.25 -2.741,0 0,0"
           transform="translate(-278.99949,349.62501)" /><path
           inkscape:connector-curvature="0"
           id="path1264"
           style="fill:#ffffff;fill-opacity:0.94117647;fill-rule:nonzero;stroke:none"
           d="M 0,0 C 2.74,0 2.74,4.25 0,4.25 -2.74,4.25 -2.74,0 0,0"
           transform="translate(24.000032,193.62498)" /><g
           id="g5165"><path
             d="m 0,0 c -0.006,-0.657 -0.459,-1.049 -1.107,-0.99 -0.827,0.075 -1.676,0.094 -1.488,1.196 0.116,0.677 0.743,1.455 1.493,1.36 C -0.242,1.457 -0.103,0.715 0,0 -0.006,-0.757 -0.034,0.227 0,0"
             style="fill:#ffffff;fill-opacity:1;fill-rule:evenodd;stroke:none"
             id="path1172"
             inkscape:connector-curvature="0"
             transform="translate(-318.35009,290.4609)" /><path
             transform="translate(-219.999,274.62501)"
             d="M 0,0 C 4.03,0 4.03,6.25 0,6.25 -4.03,6.25 -4.03,0 0,0"
             style="fill:#ffffff;fill-opacity:0.94117647;fill-rule:nonzero;stroke:none"
             id="path1268"
             inkscape:connector-curvature="0" /></g><path
           inkscape:connector-curvature="0"
           id="path1272"
           style="fill:#ffffff;fill-opacity:0.94117647;fill-rule:nonzero;stroke:none"
           d="M 0,0 C 4.03,0 4.03,6.25 0,6.25 -4.03,6.25 -4.03,0 0,0"
           transform="translate(-224.999,-21.374975)" /><path
           inkscape:connector-curvature="0"
           id="path1276"
           style="fill:#ffffff;fill-opacity:0.94117647;fill-rule:nonzero;stroke:none"
           d="M 0,0 C 4.03,0 4.03,6.25 0,6.25 -4.03,6.25 -4.03,0 0,0"
           transform="translate(-530.99949,-16.375033)" /><path
           inkscape:connector-curvature="0"
           id="path1280"
           style="fill:#ffffff;fill-opacity:0.94117647;fill-rule:nonzero;stroke:none"
           d="M 0,0 C 4.03,0 4.03,6.25 0,6.25 -4.03,6.25 -4.03,0 0,0"
           transform="translate(98.000005,249.62498)" /><path
           inkscape:connector-curvature="0"
           id="path1284"
           style="fill:#ffffff;fill-opacity:0.94117647;fill-rule:nonzero;stroke:none"
           d="M 0,0 C 4.03,0 4.03,6.25 0,6.25 -4.03,6.25 -4.03,0 0,0"
           transform="translate(-418.99949,448.62503)" /><path
           inkscape:connector-curvature="0"
           id="path1288"
           style="fill:#ffffff;fill-opacity:0.94117647;fill-rule:nonzero;stroke:none"
           d="M 0,0 C 4.03,0 4.03,6.25 0,6.25 -4.03,6.25 -4.03,0 0,0"
           transform="translate(-22.999995,87.624973)" /><path
           inkscape:connector-curvature="0"
           id="path1292"
           style="fill:#ffffff;fill-opacity:0.94117647;fill-rule:nonzero;stroke:none"
           d="M 0,0 C 4.03,0 4.03,6.25 0,6.25 -4.03,6.25 -4.03,0 0,0"
           transform="translate(-82.000008,343.62503)" /><path
           inkscape:connector-curvature="0"
           id="path1296"
           style="fill:#ffffff;fill-opacity:0.94117647;fill-rule:nonzero;stroke:none"
           d="M 0,0 C 4.03,0 4.03,6.25 0,6.25 -4.03,6.25 -4.03,0 0,0"
           transform="translate(-497.99949,290.62499)" /><path
           inkscape:connector-curvature="0"
           id="path1300"
           style="fill:#ffffff;fill-opacity:0.94117647;fill-rule:nonzero;stroke:none"
           d="M 0,0 C 4.03,0 4.03,6.25 0,6.25 -4.03,6.25 -4.03,0 0,0"
           transform="translate(-175.99999,34.625002)" /><path
           inkscape:connector-curvature="0"
           id="path1304"
           style="fill:#ffffff;fill-opacity:0.94117647;fill-rule:nonzero;stroke:none"
           d="M 0,0 C 4.03,0 4.03,6.25 0,6.25 -4.03,6.25 -4.03,0 0,0"
           transform="translate(-497.99949,130.62501)" /><path
           inkscape:connector-curvature="0"
           id="path1308"
           style="fill:#ffffff;fill-opacity:0.94117647;fill-rule:nonzero;stroke:none"
           d="M 0,0 C 4.837,0 4.837,7.5 0,7.5 -4.837,7.5 -4.837,0 0,0"
           transform="translate(-203,139.99998)" /><path
           inkscape:connector-curvature="0"
           id="path1312"
           style="fill:#ffffff;fill-opacity:0.94117647;fill-rule:nonzero;stroke:none"
           d="M 0,0 C 3.224,0 3.224,5 0,5 -3.224,5 -3.224,0 0,0"
           transform="translate(-255.9995,419.24999)" /><path
           inkscape:connector-curvature="0"
           id="path1316"
           style="fill:#ffffff;fill-opacity:0.94117647;fill-rule:nonzero;stroke:none"
           d="M 0,0 C 4.837,0 4.837,7.5 0,7.5 -4.837,7.5 -4.837,0 0,0"
           transform="translate(-26.999976,451.00002)" /><path
           inkscape:connector-curvature="0"
           id="path1320"
           style="fill:#ffffff;fill-opacity:0.94117647;fill-rule:nonzero;stroke:none"
           d="M 0,0 C 4.836,0 4.836,7.5 0,7.5 -4.836,7.5 -4.836,0 0,0"
           transform="translate(-581.99949,101.99998)" /><path
           inkscape:connector-curvature="0"
           id="path1324"
           style="fill:#ffffff;fill-opacity:0.94117647;fill-rule:nonzero;stroke:none"
           d="M 0,0 C 4.837,0 4.837,7.5 0,7.5 -4.837,7.5 -4.837,0 0,0" /></g></g><g
       id="g1326"><g
         id="g1328"
         clip-path="url(#clipPath1332)"><g
           id="g1334"><g
             id="g1336"
             clip-path="url(#clipPath1340)"><g
               id="g1342"
               transform="translate(55.0996,338.2148)"><path
                 d="m 0,0 c -8.711,-4.977 -16.047,-12.067 -21.01,-20.819 -6.269,-11.06 -9.631,-24.205 -10.371,-36.84 -1.656,-28.218 7.313,-55.599 9.567,-83.527 0.568,-7.043 0.789,-14.138 0.259,-21.191 -0.433,-5.777 -1.043,-11.805 -2.914,-17.322 -2.476,-7.307 -7.181,-13.502 -13.775,-17.572 -14.705,-9.075 -33.836,-8.909 -50.518,-8.596 -8.916,0.168 -17.832,0.652 -26.752,0.586 -9.836,-0.073 -19.564,-1.418 -29.154,-3.604 -21.066,-4.801 -41.674,-13.758 -57.834,-28.361 -16.394,-14.816 -27.105,-34.654 -30.555,-56.494 -2.31,-14.633 -1.75,-29.686 -1.423,-44.475 H 41.443 V 10.04 C 26.877,9.83 12.486,7.135 0,0"
                 style="fill:#34154c;fill-opacity:1;fill-rule:nonzero;stroke:none"
                 id="path1344"
                 inkscape:connector-curvature="0" /></g><g
               id="g1346"
               transform="translate(6.0449,308.1768)"><path
                 d="m 0,0 c -34.359,14.263 -59.492,-38.035 -18.77,-55.015 13.997,-6.113 29.586,-1.358 36.584,15.621 C 23.541,-25.81 19.504,-7.472 0,0"
                 style="fill:#eeb820;fill-opacity:1;fill-rule:evenodd;stroke:none"
                 id="path1348"
                 inkscape:connector-curvature="0" /></g><g
               id="g1350"
               transform="translate(-23.4043,290.9844)"><path
                 d="m 0,0 c 3.752,-1.674 6.488,-4.851 10.125,-6.696 2.729,-1.387 5.387,-0.965 8.324,-0.374 2.959,0.595 6.274,1.34 8.807,3.066 1.228,0.837 2.9,2.813 0.64,3.883 -1.88,0.89 -4.166,0.41 -6.015,-0.344 -1.967,-0.802 -4.074,-2.095 -6.24,-2.276 -1.93,-0.161 -3.76,0.261 -5.559,0.948 C 5.078,0.118 -1.201,3.7 -3.695,8.902 -5.535,6.581 -7.039,3.99 -8.148,1.235 -5.348,1.22 -2.557,1.141 0,0"
                 style="fill:#f8ec5a;fill-opacity:1;fill-rule:evenodd;stroke:none"
                 id="path1352"
                 inkscape:connector-curvature="0" /></g><g
               id="g1354"
               transform="translate(23.4512,274.1797)"><path
                 d="m 0,0 c -2.299,1.483 -1.176,3.833 0.807,4.92 0.554,0.305 1.263,0.532 1.976,0.783 0.084,3.441 -0.431,6.92 -1.599,10.251 -2.399,1.108 -5.235,1.512 -7.108,3.356 -0.855,0.841 -1.711,2.097 -1.601,3.377 0.138,1.647 1.125,2.76 1.554,4.277 -1.697,1.611 -3.666,3.085 -5.906,4.39 -1.154,-0.673 -2.322,-1.511 -3.662,-1.716 -1.44,-0.22 -4.856,-0.655 -5.922,0.664 -0.959,1.184 0.969,2.919 1.91,4.492 -1.299,0.438 -2.586,0.793 -3.851,1.051 -0.526,-2.798 -1.903,-5.196 -5.258,-5.941 -2.608,-0.578 -5.221,-0.165 -7.84,-0.506 -3.709,-0.483 -6.572,-3.347 -4.129,-7.009 3.17,-4.755 12.969,-5.705 16.231,-0.621 1.724,2.686 3.912,6.495 7.757,5.696 3.743,-0.777 4.729,-4.029 4.358,-7.433 -0.219,-2.005 -0.649,-5.45 2.367,-5.388 1.668,0.034 3.377,0.388 5.039,0.28 3.24,-0.21 3.898,-2.687 3.111,-5.579 -0.765,-2.82 -2.654,-4.931 -5.779,-4.683 -2.033,0.161 -3.957,0.817 -5.834,1.589 -2.441,1.005 -5.943,3.158 -8.476,1.474 -2.399,-1.597 -2.534,-4.713 -5.764,-5.402 -2.067,-0.44 -4.063,-0.01 -5.906,1.006 -2.481,1.367 -4.559,3.314 -7,4.729 -3.442,1.994 -7.2,2.708 -11.1,1.731 -1.527,-0.383 -3.662,-0.883 -5.543,-1.653 -0.121,-2.859 0.18,-5.749 0.967,-8.579 0.16,0.008 0.32,0.019 0.48,0.037 2.7,0.299 5.358,1.465 8.114,1.08 2.734,-0.381 4.998,-1.846 7.162,-3.486 2.252,-1.708 4.519,-3.85 7.242,-4.778 3.23,-1.103 6.978,-0.714 9.914,1.088 2.82,1.732 4.434,4.845 7.264,6.423 1.867,1.041 4.42,0.301 6.14,-0.655 1.791,-0.995 3.502,-2.297 5.58,-2.622 1.84,-0.289 3.621,-0.16 5.463,-0.05 0.281,0.824 0.526,1.663 0.737,2.511 C 1.246,-0.673 0.615,-0.396 0,0"
                 style="fill:#f8ec5a;fill-opacity:1;fill-rule:evenodd;stroke:none"
                 id="path1356"
                 inkscape:connector-curvature="0" /></g></g></g></g></g></g></svg>