<svg xmlns="http://www.w3.org/2000/svg" width="169.049" height="112.699"><defs><clipPath id="A"><path d="M0 500h750V0H0z"/></clipPath><clipPath id="B"><path d="M-28.457 0h-500v500h500z"/></clipPath></defs><path d="M0 112.7h169.05V0H0z" fill="#191920" fill-opacity=".94"/><path d="M6.777 47.35c5.416.65 11.512 2.43 16.654-.293 1.86-.986 3.265-2.518 4.107-4.447.827-1.898 1.186-3.96 1.53-5.99.365-2.15.703-4.322 1.406-6.392.8-2.36 2.076-4.615 3.794-6.433 3.318-3.508 7.925-4.85 12.37-6.325 2.494-.827 5.12-1.673 7.365-3.068 2.26-1.405 4.157-3.356 5.618-5.574 1.74-2.644 2.976-5.684 3.526-8.83H0v47.385c2.22-.416 4.532-.304 6.777-.035m22.1 63.264c-2.046-3.318-4.978-5.988-7.07-9.28-1.316-2.07-2.2-4.42-2.218-6.897-.016-2.26.598-4.434 1.465-6.502 1.883-4.5 4.87-8.477 6.314-13.16 1.287-4.175 1.134-9.348-2.54-12.305-3.17-2.55-7.68-2.608-11.34-1.163-2.466.974-4.525 2.618-6.394 4.473-2.148 2.132-3.994 4.537-5.637 7.075-.5.77-.98 1.553-1.455 2.34V112.7h29.908a12.35 12.35 0 0 0-1.032-2.085M137.722 0h-34.937a27.54 27.54 0 0 0-.577 2.623c-.638 3.7-.762 7.456-1.5 11.13-.64 3.193-1.818 6.51-4.55 8.503-1.565 1.14-3.397 1.715-5.295 2.004-3.373.514-6.772.79-10.17 1.094-3.252.293-6.517.632-9.697 1.403-3.428.83-6.718 2.14-9.744 3.957-5.547 3.332-10.477 8.857-12.35 15.124-.96 3.214-1.1 6.6-.32 9.86.726 3.053 2.038 5.906 3.213 8.803 1.118 2.752 2.163 5.633 2.254 8.635.093 3.06-.78 5.937-2.515 8.454-1.652 2.396-3.773 4.403-5.574 6.68-2.14 2.703-3.456 5.72-3.676 9.192-.33 5.215 1.398 10.178 2.418 15.238h28.852c-.014-2.184-.173-4.367-.19-6.552-.026-3.284-.45-6.592-.725-9.862-.27-3.193-.526-6.4-.618-9.593-.098-3.44-.116-6.917.585-10.3.6-2.847 1.578-5.62 3-8.164 2.827-5.1 7.228-9.265 12.595-11.58 2.766-1.194 5.735-2.003 8.762-2.014 3.183-.012 6.32.623 9.404 1.357 6.158 1.463 12.994 3.713 19.224 1.364 3.068-1.156 5.433-3.3 6.607-6.404 1.062-2.796 1.26-5.857 1.048-8.82-.565-7.933-2.46-15.76-2.417-23.74.03-5.978 1.994-12.07 5.623-16.843A24.83 24.83 0 0 1137.722 0M148.968 8.143c-1.65 3.184-3.582 7.313-2.26 10.944 1.2 3.292 5.028 5.585 8.5 5.263 3.37-.313 6.318-2.487 8.935-4.46 1.626-1.225 3.23-2.536 4.916-3.713V0h-15.43c-1.478 2.752-3.217 5.372-4.653 8.143m10.74 28.323c-1.963 1.122-3.616 2.72-4.735 4.693-1.413 2.493-2.17 5.456-2.338 8.304-.373 6.36 1.65 12.532 2.157 18.826.128 1.588.177 3.187.058 4.777-.098 1.302-.235 2.66-.657 3.904-.558 1.647-1.618 3.044-3.105 3.96-3.314 2.046-7.626 2.01-11.386 1.938-2-.037-4.02-.147-6.03-.132-2.217.017-4.4.32-6.57.812-4.75 1.083-9.394 3.102-13.036 6.393a21.669 21.669 0 0 0-6.887 12.734c-.52 3.298-.395 6.7-.32 10.024h62.193V34.203c-3.283.048-6.527.655-9.342 2.263" fill-opacity=".94"/><g clip-path="url(#A)" transform="matrix(1.33333 0 0 -1.33333 -.001 666.667)"><g clip-path="url(#B)"><path d="M55.1 338.215c-8.71-4.977-16.047-12.067-21-20.82-6.27-11.06-9.63-24.204-10.37-36.84-1.656-28.217 7.313-55.598 9.567-83.526.568-7.043.79-14.138.26-21.19-.433-5.777-1.043-11.805-2.914-17.322-2.476-7.307-7.18-13.502-13.775-17.572-14.705-9.075-33.836-8.9-50.518-8.596-8.916.168-17.832.652-26.752.586-9.836-.073-19.564-1.418-29.154-3.604-21.066-4.8-41.674-13.758-57.834-28.36-16.394-14.816-27.105-34.654-30.555-56.494-2.3-14.633-1.75-29.686-1.423-44.475H96.543v348.255c-14.566-.2-28.957-2.905-41.443-10.04" fill="#34154c"/><g fill-rule="evenodd"><path d="M6.045 308.177c-34.36 14.263-59.492-38.035-18.77-55.015 13.997-6.113 29.586-1.358 36.584 15.62 5.727 13.585 1.7 31.923-17.814 39.395" fill="#eeb820"/><g fill="#f8ec5a"><path d="M-23.404 290.984c3.752-1.674 6.488-4.85 10.125-6.696 2.73-1.387 5.387-.965 8.324-.374 2.96.595 6.274 1.34 8.807 3.066 1.228.837 2.9 2.813.64 3.883-1.88.9-4.166.4-6.015-.344-1.967-.802-4.074-2.095-6.24-2.276-1.93-.16-3.76.26-5.56.948-5.003 1.9-11.282 5.493-13.776 10.695a30.984 30.984 0 0 1-4.453-7.667c2.8-.015 5.6-.094 8.148-1.235M23.45 274.18c-2.3 1.483-1.176 3.833.807 4.92.554.305 1.263.532 1.976.783a28.847 28.847 0 0 1-1.599 10.25c-2.4 1.1-5.235 1.513-7.108 3.357-.855.84-1.7 2.097-1.6 3.377.137 1.647 1.124 2.76 1.553 4.277-1.697 1.6-3.666 3.085-5.906 4.4-1.154-.673-2.322-1.5-3.662-1.716-1.44-.22-4.856-.655-5.922.664-.96 1.184.97 2.92 1.9 4.492a32.274 32.274 0 0 1-3.85 1.05c-.527-2.797-1.904-5.195-5.26-5.94-2.608-.578-5.22-.165-7.84-.506-3.7-.483-6.572-3.347-4.13-7 3.17-4.754 12.97-5.704 16.23-.62 1.724 2.686 3.912 6.495 7.757 5.696 3.743-.777 4.73-4.03 4.358-7.433-.22-2.005-.65-5.45 2.367-5.388 1.668.034 3.377.388 5.04.28 3.24-.2 3.897-2.687 3.1-5.58-.765-2.82-2.654-4.93-5.78-4.682-2.033.16-3.957.817-5.834 1.6-2.44 1.005-5.943 3.158-8.476 1.474-2.4-1.597-2.534-4.713-5.764-5.402-2.067-.44-4.063-.01-5.906 1.006-2.48 1.367-4.56 3.314-7 4.73-3.442 1.994-7.2 2.708-11.1 1.73-1.527-.382-3.662-.882-5.543-1.652-.12-2.86.18-5.75.967-8.58.16.01.32.02.48.038 2.7.3 5.358 1.465 8.114 1.08 2.734-.38 4.998-1.846 7.162-3.486 2.252-1.708 4.52-3.85 7.242-4.778 3.23-1.103 6.978-.714 9.914 1.088 2.82 1.732 4.434 4.845 7.264 6.423 1.867 1.04 4.42.3 6.14-.655 1.8-.995 3.502-2.297 5.58-2.622 1.84-.3 3.62-.16 5.463-.05a30.99 30.99 0 0 1 .737 2.51c-.65.224-1.28.5-1.895.897"/></g></g></g></g></svg>